<svg width="131" height="50" viewBox="0 0 131 50" fill="none" xmlns="http://www.w3.org/2000/svg">
<g clip-path="url(#clip0_1_2)">
<path d="M7.17794 3.82774C7.16803 6.75148 7.19776 7.66957 7.28696 7.71194C7.35633 7.74019 7.57437 7.76844 7.78249 7.76844C8.26811 7.76844 8.54561 7.96618 8.54561 8.31929C8.54561 8.49584 8.47624 8.64415 8.3474 8.74302C8.10954 8.92664 8.41677 8.91251 3.93715 8.92664L0.666626 8.9337V15.9606C0.666626 21.2502 0.696358 23.1004 0.785554 23.4465C0.854929 23.7007 1.07296 24.6541 1.26127 25.5652C1.45948 26.4762 1.65769 27.4013 1.70725 27.6132C1.7568 27.8251 1.93519 28.6019 2.10367 29.3434C2.51001 31.1443 2.7776 32.2601 2.95599 32.9451C3.03528 33.2559 3.14429 33.6867 3.19385 33.8985C3.53081 35.2333 4.11554 37.1754 4.27411 37.5073C5.11652 39.2234 6.46437 40.4381 8.16901 41.0243C8.95195 41.2926 10.3394 41.5398 10.4881 41.441C10.5277 41.4056 10.5773 28.3123 10.5377 27.8392C10.5277 27.7968 10.4485 27.7544 10.3494 27.7544C10.2403 27.7544 10.0818 27.6909 9.97275 27.6061C9.79436 27.4649 9.78445 27.2813 9.75472 23.616C9.73489 20.0143 9.7448 19.7742 9.90338 19.7177C10.1313 19.64 11.9252 19.6117 12.0837 19.6894C12.1432 19.7177 12.2126 19.8518 12.2324 19.986L12.2621 20.2332L18.0202 20.2544C23.7288 20.2685 23.7783 20.2685 23.9666 20.4168C24.145 20.5581 24.1549 20.7417 24.1847 23.9973C24.2144 27.4225 24.2144 27.4225 23.9964 27.5849C23.8774 27.6767 23.6891 27.7544 23.5702 27.7686L23.3621 27.7897L23.3323 34.4635C23.3224 38.1358 23.3323 41.215 23.3621 41.3068C23.4215 41.4621 23.4513 41.4692 23.9864 41.4198C25.2352 41.3068 26.3749 40.8972 27.3759 40.1909C28.4363 39.4424 29.1301 38.6161 29.6454 37.5003C29.9428 36.8717 31.2609 32.1471 31.6375 30.4028C31.687 30.1697 32.0438 28.6443 32.4204 27.02C32.8069 25.3886 33.1241 23.9762 33.134 23.8773C33.134 23.7784 33.1836 23.5807 33.2529 23.4465L33.3719 23.1993L41.8455 23.1923C46.9792 23.1852 50.3687 23.2064 50.4281 23.2417C50.4975 23.2841 50.5768 23.4182 50.6065 23.5524C50.6462 23.6795 50.8444 23.9762 51.0624 24.2022C51.6967 24.8731 52.6779 25.212 53.9861 25.212C55.5123 25.212 56.5827 24.7459 57.1674 23.8349C57.4251 23.4324 57.4845 23.0228 57.4944 21.3843L57.5044 20.2685L86.5724 20.2544L115.63 20.2332L115.68 18.3264L115.73 16.4196L123.113 16.3984C127.166 16.3914 130.516 16.3631 130.556 16.3278C130.625 16.2854 130.695 15.4803 130.655 15.1979C130.645 15.1343 130.07 15.1131 128.128 15.1131C125.392 15.1131 125.452 15.1202 125.402 14.7247C125.392 14.6329 124.758 14.6188 120.566 14.6046L115.73 14.5835L115.7 12.6555C115.68 11.1936 115.65 10.7346 115.551 10.7346C115.492 10.7346 102.41 10.7275 86.4931 10.7134L57.5539 10.6992L57.5242 9.24443L57.5044 7.78256L57.1773 7.74725C57.0088 7.73313 53.7581 7.72606 49.9722 7.73313C46.1864 7.74019 42.9852 7.73313 42.8663 7.719C42.7275 7.69781 42.6681 7.64838 42.7077 7.58482C42.7474 7.50714 42.9951 7.48595 43.788 7.48595C44.6998 7.48595 44.8187 7.47182 44.8286 7.35883C44.898 6.70205 44.8881 5.6639 44.8286 5.58622C44.7592 5.50854 44.1745 5.49441 41.6869 5.49441C39.9525 5.50147 38.6146 5.52972 38.5849 5.5721C38.5551 5.60741 38.5452 6.04526 38.575 6.53962L38.6245 7.45064L39.6949 7.47182C40.5175 7.48595 40.7553 7.5142 40.7553 7.59188C40.7553 7.64132 40.6364 7.70488 40.4877 7.72606C40.3292 7.74725 37.3262 7.75431 33.7881 7.74019C29.2094 7.72606 27.3462 7.74019 27.2867 7.79669C27.2371 7.83906 27.2074 7.98736 27.2272 8.12155C27.2371 8.25573 27.2074 8.4111 27.1579 8.45347C27.0786 8.52409 26.2362 8.54528 23.5702 8.54528C20.1907 8.54528 20.0717 8.53822 19.8636 8.40403C19.3284 8.05092 19.7645 7.41533 20.5375 7.41533C20.7556 7.41533 20.934 7.39414 20.934 7.35883C20.934 7.33058 20.9439 5.67097 20.9538 3.67237L20.9835 0.0353415L20.3096 0.0141549C19.8041 3.05185e-05 19.4374 0.0353415 18.8428 0.169523C17.4058 0.494384 16.5138 1.04523 15.8993 1.99863C15.3741 2.79666 15.3642 2.95202 15.3146 6.92097C15.2849 9.37155 15.2353 10.6427 15.1659 10.671C15.1164 10.6922 14.601 10.7204 14.0262 10.7275C13.1144 10.7346 12.9856 10.7204 12.946 10.6074C12.9261 10.5439 12.8964 8.84895 12.8766 6.85035C12.8468 3.34044 12.8369 3.19214 12.6288 2.69779C12.3216 1.9845 11.9747 1.53959 11.3404 1.0523C10.498 0.402575 9.16999 3.05176e-05 7.84196 3.05176e-05H7.18785L7.17794 3.82774ZM8.65463 0.423762C9.96284 0.600316 11.1521 1.22885 11.6972 2.02688C12.3216 2.95909 12.3711 3.35457 12.3513 7.24583C12.3315 8.9902 12.3513 10.5651 12.381 10.7487L12.4306 11.0877H19.7744C23.8081 11.0877 27.138 11.1089 27.1678 11.13C27.1975 11.1512 27.2272 11.3772 27.2272 11.6385V12.1117H42.341H57.4548L57.4647 11.6597C57.4647 11.3419 57.5143 11.1865 57.6233 11.13C57.7323 11.0735 65.3041 11.0594 86.4534 11.0877L115.135 11.123V15.5015V19.8801H86.3444H57.5539L57.5242 19.4069C57.5044 19.0044 57.5242 18.9126 57.7026 18.7855C57.8909 18.6513 57.9008 18.5595 57.9008 17.0552C57.9008 15.671 57.881 15.4592 57.7422 15.4168C57.4449 15.3391 57.3953 15.5157 57.3953 16.5044C57.4052 17.2671 57.3755 17.5143 57.2665 17.5778C57.1079 17.6767 57.0088 17.5496 57.0088 17.2318C57.0088 17.0199 56.8007 16.914 56.6223 17.0411C56.5628 17.0835 56.5133 17.2247 56.5133 17.3518C56.5133 17.6908 56.2457 17.6555 56.1664 17.3024C56.0574 16.8222 55.7403 16.8504 55.6312 17.3518C55.542 17.7191 55.3835 17.6908 55.324 17.3024C55.2844 17.0411 55.2348 16.9846 55.0762 16.9846C54.9177 16.9846 54.8681 17.0411 54.8285 17.2671C54.7987 17.4578 54.7294 17.5496 54.6303 17.5496C54.5311 17.5496 54.4618 17.4578 54.432 17.2671C54.3924 17.0411 54.3428 16.9846 54.1843 16.9846C54.0257 16.9846 53.9762 17.0411 53.9365 17.26C53.9068 17.4154 53.8275 17.5496 53.768 17.5708C53.6689 17.5919 53.6392 17.4648 53.6293 17.1117C53.6194 16.4196 53.5797 16.2431 53.4608 16.1583C53.3815 16.1018 53.3121 16.1018 53.1932 16.1724C53.0644 16.2501 53.0346 16.3984 53.0545 16.8928C53.0644 17.2741 53.0247 17.5566 52.9653 17.599C52.8265 17.6979 52.767 17.599 52.7274 17.2318C52.7076 17.0411 52.658 16.9846 52.4995 16.9846C52.3409 16.9846 52.2913 17.0411 52.2517 17.2671C52.222 17.4578 52.1526 17.5496 52.0535 17.5496C51.9544 17.5496 51.885 17.4578 51.8553 17.2671C51.8057 17.0058 51.7661 16.9775 51.4687 17.0058C51.4093 17.0128 51.3597 17.14 51.3399 17.2812C51.3003 17.6484 51.0822 17.6626 51.0029 17.3095C50.9633 17.147 50.8939 16.9987 50.8444 16.9775C50.6858 16.9069 50.4777 17.0976 50.448 17.3448C50.4083 17.6908 50.2299 17.6767 50.1605 17.3236C50.1011 16.9634 50.0218 16.8928 49.7938 16.9987C49.6848 17.0482 49.6353 17.147 49.6452 17.2883C49.6749 17.5284 49.5064 17.6626 49.3677 17.5072C49.3181 17.4507 49.2785 16.9705 49.2785 16.4408C49.2785 15.7346 49.2488 15.4733 49.1596 15.445C48.8226 15.3674 48.783 15.4733 48.783 16.5397C48.783 17.5072 48.773 17.5919 48.6145 17.5708C48.4955 17.5566 48.4262 17.4719 48.4064 17.3024C48.3865 17.1682 48.337 17.027 48.2874 16.9917C48.1388 16.8857 47.9009 17.0835 47.8712 17.3448C47.8315 17.6908 47.6531 17.6767 47.5838 17.3236C47.554 17.1541 47.5045 16.9987 47.4648 16.9775C47.3261 16.8787 47.0981 17.027 47.0981 17.2106C47.0981 17.4578 46.9594 17.6202 46.8107 17.5566C46.7513 17.5284 46.7017 17.4224 46.7017 17.3165C46.7017 17.0623 46.563 16.921 46.3648 16.9705C46.2557 16.9987 46.2062 17.1047 46.2062 17.2953C46.2062 17.4507 46.1665 17.5919 46.117 17.6131C45.9683 17.6838 45.78 17.4507 45.8494 17.2741C45.889 17.1682 45.8494 17.0764 45.7602 17.0199C45.5422 16.8857 45.3142 17.0552 45.3142 17.3448C45.3142 17.5143 45.2647 17.5849 45.1656 17.5849C45.0466 17.5849 45.0169 17.4648 45.0169 16.921C45.0169 16.2501 44.9178 16.0453 44.6304 16.1654C44.5412 16.2078 44.5015 16.4267 44.4916 16.8857C44.4718 17.4436 44.4421 17.5496 44.3033 17.5708C44.1745 17.5919 44.1348 17.5284 44.1051 17.2883C44.0853 17.0411 44.0357 16.9846 43.8772 16.9846C43.7186 16.9846 43.669 17.0411 43.6294 17.3024C43.5699 17.6908 43.4114 17.7191 43.3222 17.3518C43.2429 17.0128 43.0942 16.8928 42.896 17.0128C42.8167 17.0623 42.7672 17.1611 42.787 17.2388C42.8366 17.4295 42.7474 17.5849 42.5789 17.5849C42.4897 17.5849 42.4401 17.5072 42.4401 17.3801C42.4401 17.0835 42.3509 16.9493 42.1428 16.9493C41.9941 16.9493 41.9446 17.0128 41.9248 17.2459C41.9049 17.4648 41.8455 17.5566 41.7266 17.5708C41.5878 17.5919 41.5482 17.5425 41.5482 17.3589C41.5482 17.0623 41.4193 16.914 41.2112 16.9705C41.1022 16.9987 41.0526 17.1047 41.0526 17.3024C41.0526 17.5425 41.0229 17.5919 40.8841 17.5708C40.7256 17.5496 40.7058 17.4436 40.7058 16.5609C40.7058 15.5651 40.6661 15.3956 40.4084 15.3956C40.1805 15.3956 40.1309 15.6993 40.1805 16.5891C40.24 17.4578 40.2201 17.5849 40.012 17.5849C39.8534 17.5849 39.7444 17.3942 39.8138 17.2388C39.8832 17.0835 39.7147 16.921 39.5363 16.9705C39.4372 16.9987 39.3678 17.1188 39.348 17.2812C39.3282 17.4648 39.2687 17.5566 39.1498 17.5708C39.0209 17.5919 38.9813 17.5284 38.9516 17.2883C38.9317 17.0411 38.8822 16.9846 38.7236 16.9846C38.565 16.9846 38.5155 17.0411 38.4957 17.2812C38.4659 17.5284 38.4263 17.5849 38.2677 17.5849C38.1092 17.5849 38.0794 17.5354 38.0794 17.3024C38.0794 17.1047 38.0299 16.9987 37.9209 16.9705C37.7326 16.921 37.5641 17.0764 37.6235 17.253C37.683 17.4295 37.5938 17.5849 37.4253 17.5849C37.2866 17.5849 37.2568 17.5213 37.2767 17.2671C37.2965 17.0623 37.1379 16.921 36.9496 16.9705C36.8406 16.9987 36.791 17.1047 36.791 17.3024C36.791 17.5354 36.7613 17.5849 36.5928 17.5849C36.4144 17.5849 36.3946 17.5284 36.3748 16.8928C36.3451 16.2431 36.3351 16.2078 36.127 16.1866C35.8991 16.1654 35.8991 16.1795 35.8991 16.8787C35.8991 17.5213 35.8793 17.5919 35.7306 17.5708C35.6018 17.5566 35.5324 17.4578 35.5027 17.2671C35.4729 17.0764 35.4035 16.9775 35.2846 16.9634C35.1459 16.9422 35.1062 16.9846 35.1062 17.147C35.1062 17.4295 35.017 17.5849 34.8485 17.5849C34.7693 17.5849 34.7098 17.5637 34.6999 17.5284C34.6702 17.2812 34.6008 16.9917 34.5611 16.9634C34.5413 16.9493 34.4521 16.9493 34.3629 16.9705C34.2638 16.9987 34.2143 17.1117 34.2143 17.3024C34.2143 17.5354 34.1845 17.5849 34.016 17.5849C33.8476 17.5849 33.8178 17.5354 33.8178 17.3024C33.8178 17.1047 33.7683 16.9987 33.6593 16.9705C33.4511 16.914 33.3223 17.0623 33.3223 17.3589C33.3223 17.5425 33.2827 17.5919 33.1538 17.5708C33.025 17.5566 32.9655 17.4648 32.9457 17.2459C32.916 17.0058 32.8763 16.9493 32.7178 16.9493C32.5889 16.9493 32.5294 16.9987 32.5195 17.1258C32.5096 17.2247 32.4898 17.3306 32.4799 17.373C32.47 17.4083 32.4502 17.4719 32.4403 17.5143C32.4403 17.5496 32.361 17.5849 32.2817 17.5849C32.1528 17.5849 32.133 17.4224 32.133 16.575C32.133 15.5439 32.0736 15.3462 31.7961 15.4168C31.6672 15.4521 31.6375 15.6287 31.6177 16.5044C31.5879 17.4154 31.5681 17.5496 31.4195 17.5708C31.2906 17.5919 31.251 17.5284 31.2212 17.2883C31.2014 17.0411 31.1519 16.9846 30.9933 16.9846C30.8347 16.9846 30.7852 17.0411 30.7653 17.2883C30.7356 17.5284 30.696 17.5919 30.5671 17.5708C30.4482 17.5566 30.3887 17.4648 30.3689 17.2459C30.3194 16.7727 29.9428 16.8645 29.913 17.366C29.9031 17.6061 29.5662 17.6696 29.5463 17.4295C29.5364 17.3377 29.5265 17.2318 29.5067 17.1965C29.4968 17.1541 29.477 17.0835 29.477 17.034C29.467 16.9775 29.3779 16.9493 29.2887 16.9634C29.1598 16.9775 29.0904 17.0764 29.0607 17.2671C29.031 17.4578 28.9517 17.5566 28.8427 17.5708C28.7138 17.5919 28.6742 17.5284 28.6445 17.2883C28.6246 17.0411 28.5751 16.9846 28.4165 16.9846C28.2579 16.9846 28.2084 17.0411 28.1886 17.2318C28.1688 17.366 28.1093 17.5213 28.0498 17.5708C27.8516 17.7332 27.7723 17.5143 27.7723 16.8222C27.7723 16.1795 27.7624 16.1654 27.5543 16.1866C27.3363 16.2078 27.3263 16.236 27.3263 16.8787C27.3263 17.4578 27.3065 17.5496 27.1579 17.5708C27.0092 17.5919 26.9795 17.5425 26.9795 17.3024C26.9795 17.1047 26.9299 16.9987 26.8209 16.9705C26.6029 16.914 26.4542 17.0482 26.4641 17.2953C26.474 17.5284 26.2263 17.7473 26.147 17.5778C26.1172 17.5213 26.0776 17.366 26.0677 17.2318C26.0479 17.0411 25.9983 16.9846 25.8397 16.9846C25.6812 16.9846 25.6316 17.0411 25.6118 17.2883C25.5821 17.5284 25.5424 17.5919 25.4136 17.5708C25.3046 17.5566 25.2253 17.4578 25.1955 17.2671C25.1658 17.0764 25.0964 16.9775 24.9775 16.9634C24.8586 16.9493 24.7892 16.9846 24.7793 17.0693C24.7694 17.14 24.7595 17.2459 24.7397 17.3024C24.7297 17.3589 24.7198 17.4507 24.7099 17.4931C24.7 17.5425 24.6306 17.5849 24.5514 17.5849C24.4423 17.5849 24.4027 17.5072 24.4027 17.3095C24.4027 17.1188 24.3531 17.0199 24.2342 16.9917C24.0261 16.9281 23.9072 17.0199 23.8675 17.2741C23.8477 17.3871 23.8279 17.5001 23.818 17.5284C23.818 17.5637 23.7387 17.5849 23.6594 17.5849C23.5306 17.5849 23.5107 17.4224 23.5107 16.5256C23.5107 15.6145 23.4909 15.4521 23.3522 15.4168C23.263 15.3956 23.1539 15.4168 23.1044 15.4733C23.0548 15.5298 23.0152 16.2784 23.0152 17.1329C23.0152 18.4535 23.035 18.7148 23.1639 18.7855C23.2828 18.8561 23.3125 18.9973 23.2927 19.3787L23.263 19.8801H18.0698H12.8766L12.7577 19.64C12.6982 19.5058 12.5594 19.3787 12.4504 19.3504C12.3513 19.3292 11.6278 19.3081 10.8449 19.3151C9.69525 19.3151 9.40784 19.3363 9.33847 19.421C9.279 19.4846 9.23936 21.1089 9.23936 23.4677C9.23936 27.7615 9.23936 27.7544 9.79436 28.0157L10.0322 28.1217V31.4338V34.746H8.95195C8.35731 34.746 7.80231 34.7672 7.71312 34.7884C7.57437 34.8237 7.55455 35.0567 7.55455 36.6457C7.55455 38.2135 7.58428 38.5384 7.74285 38.9974C7.97079 39.6401 8.30776 40.1203 8.78347 40.5017C9.34838 40.9537 9.24927 41.0031 8.36722 40.6853C6.88062 40.1415 5.52286 38.9339 4.85884 37.5779C4.68045 37.1895 4.24438 35.9395 4.08581 35.311C4.03626 35.1344 3.95697 34.8096 3.89751 34.5836C3.53081 33.2064 2.75778 30.0355 2.5001 28.8491C2.40099 28.383 2.15323 27.2883 1.96492 26.4126C1.76671 25.5369 1.49912 24.2869 1.36037 23.6301L1.11261 22.4366V15.89C1.11261 9.9789 1.13243 9.33624 1.27118 9.29387C1.36037 9.27268 2.98572 9.2515 4.89848 9.2515H8.36722L8.70418 9.01138C9.01141 8.79245 9.04115 8.73596 9.04115 8.34047C9.04115 7.97324 9.0015 7.88143 8.76365 7.69075C8.61499 7.5707 8.3474 7.45064 8.14919 7.42239L7.80231 7.37295L7.77258 3.86305C7.74285 -0.127089 7.64374 0.28958 8.65463 0.423762ZM20.4582 0.600316C20.4781 0.74156 20.5078 2.18225 20.5276 3.81361C20.5474 6.73736 20.5177 7.06222 20.2303 7.06222C20.1708 7.06222 19.9726 7.11165 19.7843 7.17521C18.8626 7.48595 18.9518 8.63002 19.9132 8.8207C20.1411 8.87014 21.6079 8.89839 23.6693 8.89839C26.365 8.89839 27.0786 8.91957 27.1678 8.9902C27.2272 9.04669 27.2669 9.39274 27.2669 9.83766C27.2669 10.5015 27.2371 10.6004 27.0786 10.6639C26.8308 10.7628 16.0084 10.7628 15.9291 10.6639C15.8993 10.6286 15.8696 8.96195 15.8795 6.96335C15.8795 3.59468 15.8993 3.29101 16.0777 2.78959C16.3354 2.06925 16.7021 1.61727 17.3463 1.19354C18.0004 0.762747 18.486 0.57913 19.2888 0.459073C20.2997 0.303704 20.4087 0.310767 20.4582 0.600316ZM39.7147 6.03114C39.7444 6.10882 39.7543 6.37012 39.7444 6.59611C39.7147 7.06222 39.5165 7.23877 39.2291 7.06928C39.0408 6.95628 39.0011 6.00995 39.1795 5.88283C39.3381 5.76984 39.6552 5.85458 39.7147 6.03114ZM41.3698 5.91814C41.4193 5.95345 41.4491 6.22888 41.4292 6.53962L41.3995 7.09753L40.9139 7.11872C40.6463 7.13284 40.3886 7.11165 40.3292 7.06928C40.23 6.99866 40.1607 6.27831 40.23 6.02408C40.2598 5.93933 40.349 5.85458 40.4382 5.84046C40.6958 5.80515 41.2707 5.84752 41.3698 5.91814ZM44.3331 6.19357C44.3529 6.34187 44.3529 6.60318 44.3232 6.77973C44.2835 7.06222 44.2439 7.09753 44.0258 7.09753C43.8375 7.09753 43.7781 7.05516 43.7186 6.87154C43.6393 6.57493 43.7087 6.00289 43.8375 5.88989C44.0258 5.72746 44.2934 5.89696 44.3331 6.19357ZM43.1735 5.97464C43.2825 6.17238 43.233 6.96335 43.114 7.04809C43.0447 7.09753 42.8167 7.13284 42.5888 7.13284C42.3608 7.13284 42.1329 7.09753 42.0635 7.04809C41.9347 6.95628 41.895 5.99583 42.014 5.91108C42.0437 5.88283 42.3113 5.86165 42.5987 5.86165C42.9753 5.86165 43.124 5.88989 43.1735 5.97464ZM42.0437 7.58482C42.0437 7.70488 41.7761 7.78256 41.5383 7.73313C41.2013 7.65544 41.3202 7.48595 41.6968 7.48595C41.9248 7.48595 42.0437 7.52126 42.0437 7.58482ZM56.8701 8.13567C56.9692 8.2416 57.0385 11.4055 56.9593 11.6385L56.9097 11.7939L42.3608 11.7798L27.8219 11.7586L27.7921 9.99303C27.7822 9.02551 27.7921 8.19217 27.8219 8.14273C27.8913 8.00855 56.7611 8.00855 56.8701 8.13567ZM124.857 15.0496C124.937 15.0919 124.996 15.2049 124.996 15.2967V15.4662H127.414C128.742 15.4662 129.902 15.4874 129.991 15.5086C130.179 15.558 130.209 15.9606 130.031 15.9676C129.307 15.9959 115.858 15.9606 115.779 15.9253C115.65 15.8688 115.65 15.1625 115.779 15.0707C115.938 14.9577 124.669 14.9366 124.857 15.0496ZM29.467 18.0863C29.4968 18.1216 29.5364 18.8278 29.5463 19.6541C29.5662 20.7134 29.6058 21.1654 29.6851 21.2007C29.9626 21.3278 30.022 21.0383 30.022 19.6117C30.022 18.8208 30.0518 18.1357 30.0914 18.0863C30.1311 18.0439 30.4581 18.0086 30.9041 18.0086H31.6375V18.7643C31.6375 19.5623 31.7069 19.753 31.9745 19.6824C32.0934 19.647 32.133 19.4917 32.1528 18.8419L32.1826 18.0439H32.9754H33.7683L33.8178 18.8561C33.8674 19.6117 33.8773 19.6682 34.0656 19.6682C34.2539 19.6682 34.2638 19.6117 34.3134 18.8561L34.3629 18.0439L35.0963 18.0227C35.5819 18.0086 35.8594 18.0298 35.8991 18.0863C35.9387 18.1287 35.9685 18.4747 35.9486 18.849C35.9189 19.6188 35.9486 19.7035 36.1964 19.7035C36.4541 19.7035 36.4937 19.5694 36.4937 18.7431V18.0015L37.2668 18.0227L38.0299 18.0439L38.0794 18.8561C38.1191 19.5411 38.1587 19.6682 38.2975 19.6894C38.575 19.7247 38.6642 19.4705 38.6443 18.7925C38.6245 18.4394 38.6443 18.1145 38.6741 18.0722C38.7137 18.0298 39.0507 18.0086 39.4768 18.0227L40.2102 18.0439L40.24 19.2445C40.2697 20.438 40.3093 20.5863 40.6265 20.5016C40.7256 20.4733 40.7553 20.205 40.7553 19.2798C40.7553 18.5524 40.795 18.0722 40.8544 18.0439C40.9733 17.9945 42.2419 17.9804 42.3113 18.0369C42.341 18.051 42.3807 18.4112 42.4104 18.8349C42.45 19.6188 42.5095 19.753 42.7771 19.6824C42.9059 19.647 42.9357 19.4987 42.9357 18.8631C42.9357 18.2629 42.9654 18.0722 43.0744 18.0298C43.1537 18.0015 43.5105 17.9874 43.8673 17.9945L44.5115 18.0227L44.5412 18.8419C44.5709 19.64 44.5808 19.6682 44.7989 19.6894C45.0565 19.7177 45.0367 19.7742 45.0665 18.8561C45.0863 18.4465 45.0962 18.0934 45.1061 18.058C45.116 18.0298 45.453 18.0086 45.8593 18.0086C46.7314 18.0086 46.6918 17.9592 46.7314 18.9973C46.7513 19.6188 46.7711 19.6682 46.9495 19.6682C47.1378 19.6682 47.1477 19.6117 47.1774 18.8914C47.1873 18.4677 47.2468 18.0863 47.3063 18.0439C47.3856 17.9874 48.6838 17.9804 48.7631 18.0439C48.783 18.058 48.8226 18.4112 48.8424 18.8349C48.892 19.6117 48.9514 19.753 49.219 19.6824C49.3479 19.647 49.3776 19.4987 49.3776 18.8278V18.0227L49.7542 18.0015C49.9524 17.9874 50.2993 17.9874 50.5173 18.0086L50.9138 18.0439L50.9435 19.5694C50.9633 20.7982 50.993 21.116 51.112 21.1866C51.4192 21.3702 51.4588 21.1866 51.4588 19.6824C51.4588 18.8561 51.4985 18.1428 51.548 18.0863C51.6571 17.9592 56.8106 17.9592 56.9196 18.0934C56.9989 18.1852 56.9791 21.3702 56.8998 21.4267C56.8701 21.4479 51.4687 21.4691 44.8881 21.4691H32.9259L32.8862 21.6315C32.8565 21.7163 32.8169 22.1824 32.7871 22.6697C32.7673 23.1569 32.688 23.729 32.6385 23.9408C32.579 24.1527 32.2123 25.6781 31.8357 27.3307C31.4492 28.9833 31.0329 30.7629 30.8942 31.2855C29.804 35.4663 29.7346 35.7488 29.3977 36.7587C28.7733 38.6302 27.4552 39.9861 25.5127 40.7206C24.9577 40.9325 24.7496 40.9466 24.8982 40.7559C24.9478 40.6782 25.0568 40.5794 25.1163 40.5229C25.4532 40.2757 25.8298 39.7955 26.0578 39.3294C26.3055 38.8209 26.3155 38.7503 26.3452 36.8647C26.365 35.544 26.3353 34.8943 26.2659 34.8307C26.1866 34.7672 25.8596 34.746 25.0766 34.7531C24.482 34.7601 23.9666 34.7389 23.927 34.7107C23.8873 34.6824 23.8576 33.2064 23.8477 31.4268L23.8378 28.1923L24.1648 27.9663C24.3531 27.8462 24.5414 27.6273 24.591 27.4861C24.6604 27.2813 24.6901 20.9324 24.6108 20.4168C24.6108 20.3674 24.4423 20.2191 24.2441 20.092L23.8972 19.8589L23.8873 19.0256C23.8873 18.5595 23.8873 18.1499 23.8972 18.1004C23.9072 17.9945 24.7991 17.9662 27.4255 17.9945C28.5354 18.0086 29.4274 18.051 29.467 18.0863ZM56.8602 21.9211C57.0385 21.9634 56.9593 23.1781 56.7511 23.5807C56.5331 24.0185 56.0078 24.4281 55.3636 24.6471C54.9573 24.7883 54.7195 24.8166 53.9365 24.8236C53.0247 24.8236 52.9653 24.8166 52.4004 24.5764C51.7661 24.301 51.3498 23.9338 51.1615 23.4818C51.1021 23.3264 51.0129 23.1216 50.9831 23.0228L50.9138 22.8462L42.2518 22.8321C37.4947 22.825 33.5304 22.8038 33.4511 22.7827C33.352 22.7544 33.3223 22.6414 33.3421 22.3377L33.3719 21.9281L39.6156 21.8928C45.8692 21.8575 56.6719 21.8716 56.8602 21.9211ZM9.91329 35.1627C10.0223 35.2121 10.052 35.7488 10.0719 37.9099C10.0818 39.3929 10.0619 40.6429 10.0223 40.6853C9.9232 40.7983 8.98168 40.1556 8.72401 39.8025C8.17892 39.0327 8.13928 38.8562 8.14919 36.9776C8.14919 36.0101 8.17892 35.198 8.20865 35.1627C8.27802 35.085 9.7448 35.085 9.91329 35.1627ZM25.7109 35.198C25.8298 35.2757 25.8596 35.5652 25.8794 36.6316C25.8992 38.2559 25.7803 38.9339 25.3739 39.5412C24.9973 40.1062 24.1946 40.7842 23.9567 40.7277C23.8279 40.6924 23.7783 35.5228 23.9072 35.2827C23.9864 35.1344 24.0558 35.1203 24.7793 35.1062C25.364 35.0991 25.6019 35.1203 25.7109 35.198Z" fill="#FFF8F8"/>
<path d="M14.2838 12.8744C14.0757 12.9874 13.9766 13.2275 13.9766 13.5877C13.9865 14.0961 14.7397 14.3786 15.1857 14.0397C15.3641 13.8984 15.4136 13.8066 15.4136 13.5241C15.4136 13.1922 15.3641 13.0792 15.1857 12.9379C14.9577 12.7685 14.5316 12.7402 14.2838 12.8744ZM14.9775 13.1074C15.2154 13.3193 15.2352 13.5382 15.0667 13.8066C14.9478 13.9973 14.591 14.0467 14.4225 13.8913C14.0856 13.5947 14.2838 12.9309 14.71 12.9238C14.7496 12.9238 14.8685 13.0086 14.9775 13.1074Z" fill="#FFF8F8"/>
<path d="M31.7069 12.832C31.5484 12.9379 31.6574 13.0015 31.925 12.9591C32.1232 12.9308 32.2619 12.952 32.371 13.0297C32.5692 13.171 32.4899 13.2839 32.034 13.5029C31.5781 13.7218 31.3898 13.9831 31.588 14.1243C31.7466 14.2303 32.4205 14.2303 32.5692 14.1243C32.6782 14.0467 32.5493 14.0255 32.1628 14.0467C31.7664 14.0749 31.806 13.9054 32.2718 13.5876C32.7674 13.2486 32.8268 13.0791 32.5493 12.9026C32.371 12.7825 31.8259 12.7402 31.7069 12.832Z" fill="#FFF8F8"/>
<path d="M39.9626 12.8885C39.9626 12.9662 40.0319 12.9873 40.2202 12.952C40.3986 12.9167 40.5076 12.945 40.5968 13.0368C40.7554 13.1851 40.6959 13.3475 40.5076 13.3475C40.25 13.3475 40.25 13.4888 40.5076 13.5594C40.7059 13.6088 40.7653 13.6724 40.7356 13.7924C40.7158 13.9196 40.6365 13.9549 40.2896 13.969C39.8535 13.9902 39.7346 14.0749 40.022 14.1526C40.7059 14.3433 41.2609 13.9761 40.9437 13.5453C40.8644 13.4393 40.8644 13.3616 40.9635 13.2345C41.0626 13.0933 41.0626 13.0438 40.9041 12.9238C40.6761 12.7472 39.9626 12.719 39.9626 12.8885Z" fill="#FFF8F8"/>
<path d="M49.3082 12.8319C49.1298 12.8814 48.3865 13.5947 48.3865 13.7218C48.3865 13.8136 48.4856 13.8418 48.8225 13.8418C49.1992 13.8418 49.2685 13.863 49.3181 14.0184C49.3875 14.2232 49.5758 14.2585 49.5758 14.0678C49.5758 13.9972 49.6253 13.9054 49.6947 13.856C49.7839 13.7924 49.7839 13.75 49.6947 13.6865C49.6253 13.637 49.5758 13.4322 49.5758 13.2345C49.5758 12.8602 49.5262 12.7755 49.3082 12.8319ZM49.3577 13.4181C49.3181 13.6229 49.0307 13.7642 48.882 13.6582C48.7532 13.5664 48.9514 13.1851 49.0901 13.2486C49.1397 13.2698 49.1793 13.2486 49.1793 13.1992C49.1793 13.1356 49.2091 13.1286 49.2883 13.1851C49.3478 13.2274 49.3775 13.3334 49.3577 13.4181Z" fill="#FFF8F8"/>
<path d="M57.1772 12.8319C57.1375 12.8531 57.1078 13.0155 57.1078 13.185C57.1078 13.4675 57.1276 13.4887 57.3853 13.4887C57.7916 13.4887 58.0394 13.637 57.9601 13.8277C57.9006 13.9548 57.8114 13.983 57.4844 13.983C56.9789 13.983 57.0186 14.1525 57.5339 14.1808C57.7916 14.1949 57.9502 14.1596 58.0889 14.0607C58.4656 13.7924 58.2673 13.3475 57.7718 13.3475C57.4348 13.3475 57.2763 13.2415 57.3556 13.072C57.3853 12.9873 57.4646 12.9378 57.5141 12.959C57.5637 12.9873 57.6033 12.9732 57.6033 12.9378C57.6033 12.9025 57.7123 12.8884 57.8511 12.9096C57.9997 12.9237 58.0989 12.9096 58.0989 12.8602C58.0989 12.7754 57.2862 12.7472 57.1772 12.8319Z" fill="#FFF8F8"/>
<path d="M65.988 13.0298C65.4132 13.5595 65.433 14.0256 66.0276 14.1669C66.4538 14.2657 66.7709 14.1739 66.8998 13.9197C67.0286 13.6725 66.8007 13.3688 66.4637 13.3053C66.206 13.2558 66.1961 13.2064 66.3745 12.9027C66.4934 12.6979 66.2655 12.7685 65.988 13.0298ZM66.6124 13.6231C66.8403 13.9197 66.1565 14.1245 65.8988 13.8279C65.8195 13.7431 65.8294 13.6796 65.9186 13.6019C66.097 13.4465 66.4934 13.4606 66.6124 13.6231Z" fill="#FFF8F8"/>
<path d="M74.4021 12.8532C74.3724 12.8885 74.3625 12.9309 74.3922 12.9309C74.422 12.938 74.5012 12.9521 74.5508 12.9592C74.6103 12.9662 74.7688 12.9804 74.9076 12.9874C75.2148 12.9945 75.2049 13.1004 74.8184 13.7148C74.5706 14.0891 74.5706 14.2515 74.8085 14.1386C74.9373 14.075 75.5419 13.0439 75.5419 12.8956C75.5419 12.8038 75.4229 12.7826 75.0067 12.7826C74.7094 12.7826 74.4319 12.8109 74.4021 12.8532Z" fill="#FFF8F8"/>
<path d="M83.054 12.8673C82.8558 12.9802 82.8161 13.1215 82.9152 13.3404C82.9648 13.4393 82.9549 13.5311 82.8855 13.5805C82.5783 13.7995 82.9152 14.1949 83.4108 14.1949C83.9856 14.1949 84.3919 13.7853 84.0252 13.5664C83.9162 13.5029 83.9063 13.4393 83.9955 13.2769C84.0847 13.1074 84.0748 13.0509 83.9162 12.9308C83.718 12.7613 83.2919 12.7401 83.054 12.8673ZM83.718 13.065C83.7973 13.2416 83.7081 13.3475 83.4802 13.3475C83.2423 13.3475 83.054 13.1851 83.1333 13.0367C83.2225 12.8743 83.6387 12.8955 83.718 13.065ZM83.7477 13.6441C83.8171 13.6935 83.8667 13.7712 83.8667 13.8207C83.8667 13.9548 83.4603 14.0537 83.2522 13.969C83.0738 13.9054 83.0144 13.6935 83.1432 13.6088C83.2522 13.5311 83.6189 13.5523 83.7477 13.6441Z" fill="#FFF8F8"/>
<path d="M91.5079 12.9309C91.1214 13.1851 91.389 13.7007 91.9143 13.7007C92.1026 13.7007 92.162 13.8772 91.9935 13.9479C91.8449 14.0114 91.8746 14.195 92.0233 14.1527C92.0827 14.1385 92.2611 13.9973 92.4197 13.849C92.7467 13.5171 92.7864 13.0792 92.5089 12.9026C92.2611 12.7402 91.7755 12.7543 91.5079 12.9309ZM92.3999 13.1075C92.5386 13.2275 92.4494 13.3899 92.162 13.5171C91.9737 13.6018 91.5971 13.397 91.5971 13.1993C91.5971 12.9874 92.1719 12.9168 92.3999 13.1075Z" fill="#FFF8F8"/>
<path d="M99.8922 12.8885C99.7237 12.9732 99.7138 12.9944 99.8724 13.1569C99.9616 13.2557 100.021 13.3758 100.011 13.4323C99.9616 13.7007 100.031 14.1314 100.12 14.0891C100.239 14.0396 100.259 12.8814 100.14 12.8249C100.1 12.8108 99.9913 12.8391 99.8922 12.8885Z" fill="#FFF8F8"/>
<path d="M101.082 12.8602C100.863 12.952 100.616 13.291 100.616 13.517C100.616 13.7571 100.913 14.1102 101.161 14.1526C101.775 14.2726 102.102 14.0537 102.102 13.517C102.102 12.9379 101.627 12.6342 101.082 12.8602ZM101.716 13.0791C101.894 13.3192 101.904 13.5593 101.746 13.7853C101.567 14.0396 101.161 14.0608 101.052 13.8206C100.794 13.2769 101.379 12.6271 101.716 13.0791Z" fill="#FFF8F8"/>
<path d="M23.0252 12.9167C22.9161 12.9661 22.9161 13.0085 23.0549 13.1427C23.154 13.2486 23.2135 13.4534 23.2135 13.7147C23.2135 14.0396 23.2432 14.1243 23.372 14.1243C23.5009 14.1243 23.5207 14.0325 23.491 13.5099C23.4612 12.8743 23.372 12.7613 23.0252 12.9167Z" fill="#FFF8F8"/>
<path d="M14.5019 15.4875C14.3235 15.6146 14.3533 18.6725 14.5317 18.7784C14.6308 18.842 14.6902 18.8279 14.7993 18.7431C14.8984 18.6584 14.9281 18.2841 14.9083 17.1047C14.8984 16.2572 14.8984 15.551 14.8884 15.5298C14.8884 15.438 14.611 15.4098 14.5019 15.4875Z" fill="#FFF8F8"/>
<path d="M66.0771 15.4662C66.0078 15.5439 65.988 16.2713 66.0078 17.7402C66.0276 18.736 66.0375 18.7854 66.2258 18.7854C66.4141 18.7854 66.424 18.736 66.4339 17.8461C66.4438 17.3377 66.4637 16.6738 66.4835 16.3843C66.5429 15.7487 66.4637 15.3955 66.2754 15.3955C66.1961 15.3955 66.1168 15.4238 66.0771 15.4662Z" fill="#FFF8F8"/>
<path d="M74.6696 15.4803C74.5804 15.5439 74.5507 16.0029 74.5507 17.0976C74.5507 18.4323 74.5705 18.6512 74.7191 18.7501C74.9966 18.9549 75.0462 18.743 75.0561 17.1541C75.066 15.4521 75.0165 15.2331 74.6696 15.4803Z" fill="#FFF8F8"/>
<path d="M83.2423 15.4449C83.2027 15.4661 83.173 16.2288 83.173 17.1328C83.173 18.4605 83.2027 18.7783 83.3117 18.8065C83.6289 18.8913 83.6685 18.7006 83.6685 17.1257C83.6685 16.0028 83.6388 15.5438 83.5496 15.4802C83.4108 15.3814 83.3315 15.3743 83.2423 15.4449Z" fill="#FFF8F8"/>
<path d="M91.8448 15.4662C91.8151 15.5086 91.7854 16.2572 91.7953 17.1399C91.7953 18.3264 91.8349 18.7572 91.9241 18.7995C91.9935 18.8278 92.0926 18.8066 92.1719 18.736C92.3404 18.5735 92.3404 15.6004 92.1719 15.4803C92.0232 15.3744 91.9241 15.3744 91.8448 15.4662Z" fill="#FFF8F8"/>
<path d="M100.487 15.4873C100.328 15.565 100.318 15.7204 100.348 17.1399C100.378 18.6936 100.437 18.9902 100.695 18.7642C100.834 18.6512 100.873 15.5509 100.745 15.4591C100.695 15.4238 100.576 15.4308 100.487 15.4873Z" fill="#FFF8F8"/>
<path d="M61.7758 16.1936C61.647 16.2854 61.6272 18.5594 61.756 18.7077C61.8055 18.7642 61.9146 18.7854 62.0038 18.7642C62.1425 18.7218 62.1623 18.5524 62.1623 17.4507C62.1623 16.4408 62.1326 16.1795 62.0236 16.1512C61.9542 16.13 61.8353 16.1512 61.7758 16.1936Z" fill="#FFF8F8"/>
<path d="M70.4577 16.1583C70.2991 16.1795 70.2892 16.2854 70.309 17.4648C70.3388 18.6936 70.3487 18.7501 70.537 18.7501C70.7253 18.7501 70.7352 18.6936 70.7649 17.5284C70.7748 16.8575 70.755 16.2642 70.7154 16.2219C70.6658 16.1724 70.5568 16.1442 70.4577 16.1583Z" fill="#FFF8F8"/>
<path d="M78.9806 16.2078C78.8518 16.2996 78.832 16.4973 78.8815 17.5284C78.941 18.7502 79.0203 18.9903 79.2879 18.736C79.4663 18.5595 79.4564 16.2925 79.2681 16.1795C79.159 16.116 79.0996 16.123 78.9806 16.2078Z" fill="#FFF8F8"/>
<path d="M18.7437 16.2571C18.7338 16.3066 18.7139 16.8645 18.704 17.5001C18.6842 18.4323 18.7139 18.6724 18.8329 18.7571C18.932 18.8348 19.0113 18.8419 19.1005 18.7854C19.1996 18.7289 19.2392 18.4181 19.2392 17.5566C19.2491 16.921 19.2293 16.3489 19.1896 16.2854C19.1203 16.1512 18.7635 16.13 18.7437 16.2571Z" fill="#FFF8F8"/>
<path d="M87.4346 17.4365C87.4346 18.7077 87.494 18.9337 87.8013 18.7995C87.9202 18.743 88.0689 16.4619 87.9598 16.2642C87.9301 16.2147 87.8013 16.1724 87.6724 16.1724H87.4346V17.4365Z" fill="#FFF8F8"/>
<path d="M96.1262 16.2924C96.0965 16.363 96.0668 16.9351 96.0668 17.5636C96.0668 18.4252 96.0965 18.7218 96.1956 18.7783C96.4929 18.9548 96.5623 18.6935 96.5326 17.4365C96.5028 16.356 96.483 16.2077 96.3344 16.1865C96.2452 16.1723 96.1461 16.2218 96.1262 16.2924Z" fill="#FFF8F8"/>
<path d="M15.3543 16.9916C15.3146 17.0199 15.2849 17.4295 15.2849 17.9097C15.2849 18.5877 15.3146 18.7784 15.4237 18.8066C15.7111 18.8914 15.7904 18.6724 15.7606 17.825C15.7309 17.1329 15.7012 16.9846 15.5822 16.9634C15.493 16.9563 15.3939 16.9634 15.3543 16.9916Z" fill="#FFF8F8"/>
<path d="M16.2066 17.034C16.058 17.1753 16.1372 18.7219 16.2958 18.7925C16.5436 18.8985 16.6129 18.7148 16.6328 17.9239C16.6427 17.1965 16.5832 16.9493 16.3751 16.9493C16.3355 16.9493 16.2562 16.9917 16.2066 17.034Z" fill="#FFF8F8"/>
<path d="M17.0985 16.9986C16.9102 17.0481 16.9201 18.6653 17.1084 18.7783C17.3859 18.9407 17.4751 18.6936 17.4454 17.8249C17.4157 17.0198 17.376 16.9139 17.0985 16.9986Z" fill="#FFF8F8"/>
<path d="M17.9311 16.9916C17.8914 17.0198 17.8617 17.4153 17.8617 17.8673C17.8617 18.4817 17.9013 18.7147 18.0004 18.7783C18.2779 18.9407 18.3671 18.6936 18.3374 17.8249C18.3077 17.1328 18.2779 16.9845 18.159 16.9633C18.0698 16.9563 17.9707 16.9633 17.9311 16.9916Z" fill="#FFF8F8"/>
<path d="M19.6653 17.0339C19.4969 17.154 19.5068 18.6724 19.6752 18.7712C19.9527 18.9337 20.032 18.7501 20.0519 17.9238C20.0618 16.9704 19.9924 16.8009 19.6653 17.0339Z" fill="#FFF8F8"/>
<path d="M20.5078 16.9916C20.379 17.0905 20.4285 18.6936 20.5673 18.7713C20.8646 18.9478 20.9439 18.7571 20.9141 17.8603C20.8844 17.1399 20.8547 16.9845 20.7357 16.9634C20.6465 16.9563 20.5474 16.9634 20.5078 16.9916Z" fill="#FFF8F8"/>
<path d="M21.3502 17.0692C21.2115 17.2811 21.2709 18.6159 21.4295 18.75C21.5584 18.863 21.5782 18.863 21.6971 18.743C21.8259 18.6159 21.8854 17.2811 21.7665 17.0622C21.6872 16.9139 21.4593 16.9209 21.3502 17.0692Z" fill="#FFF8F8"/>
<path d="M22.2421 17.0341C22.0736 17.1542 22.0835 18.5737 22.252 18.7431C22.361 18.8561 22.4007 18.8561 22.4998 18.7643C22.589 18.6937 22.6187 18.4112 22.5989 17.8251C22.5692 17.0059 22.4998 16.8505 22.2421 17.0341Z" fill="#FFF8F8"/>
<path d="M58.327 17.0342C58.2378 17.1472 58.2775 18.7291 58.3766 18.7997C58.4162 18.828 58.5054 18.8209 58.5847 18.7926C58.6838 18.7503 58.7235 18.5172 58.7433 17.9311C58.7631 17.0624 58.7433 16.9494 58.5451 16.9494C58.4658 16.9494 58.3766 16.9918 58.327 17.0342Z" fill="#FFF8F8"/>
<path d="M59.1496 17.0552C59.0307 17.2741 59.0901 18.6018 59.219 18.7289C59.5064 18.9902 59.5956 18.7642 59.5659 17.8602C59.5361 17.1187 59.5163 16.9845 59.3776 16.9633C59.2884 16.9492 59.1893 16.9916 59.1496 17.0552Z" fill="#FFF8F8"/>
<path d="M60.0514 16.9916C60.0118 17.0198 59.9821 17.4153 59.9821 17.8673C59.9821 18.4817 60.0217 18.7147 60.1208 18.7783C60.3983 18.9407 60.4875 18.6936 60.4578 17.8249C60.428 17.1328 60.3983 16.9845 60.2794 16.9633C60.1902 16.9563 60.0911 16.9633 60.0514 16.9916Z" fill="#FFF8F8"/>
<path d="M60.9335 17.0058C60.8939 17.0552 60.8443 18.3335 60.8641 18.6937C60.874 18.7996 61.2705 18.8208 61.2705 18.7148C61.2804 18.6725 61.2804 18.2911 61.2804 17.8674C61.2804 17.4366 61.2804 17.0552 61.2705 17.0199C61.2705 16.9352 61.0029 16.9281 60.9335 17.0058Z" fill="#FFF8F8"/>
<path d="M62.5983 17.0411C62.5785 17.0905 62.5686 17.5001 62.5785 17.945C62.6082 18.6936 62.6181 18.7501 62.8064 18.7501C62.9947 18.7501 63.0046 18.6936 63.0344 18.0086C63.0542 17.599 63.0344 17.1964 63.0046 17.1046C62.9452 16.9351 62.6776 16.8928 62.5983 17.0411Z" fill="#FFF8F8"/>
<path d="M63.5201 16.9986C63.4309 17.0551 63.4309 18.743 63.5102 18.8066C63.5399 18.8277 63.6291 18.8277 63.7084 18.8066C63.9066 18.7571 63.9165 16.9492 63.7183 16.9492C63.639 16.9492 63.5498 16.9704 63.5201 16.9986Z" fill="#FFF8F8"/>
<path d="M64.303 17.0552C64.2237 17.2035 64.2237 18.5241 64.303 18.6724C64.3327 18.736 64.4517 18.7854 64.5508 18.7854C64.7292 18.7854 64.7391 18.736 64.7192 17.8885C64.6895 17.1187 64.6697 16.9845 64.5309 16.9634C64.4417 16.9492 64.3426 16.9916 64.303 17.0552Z" fill="#FFF8F8"/>
<path d="M65.2049 16.9916C65.1157 17.0552 65.1157 18.5877 65.195 18.7431C65.2446 18.8278 65.2941 18.8349 65.4428 18.7784C65.6212 18.7148 65.6311 18.6371 65.6112 17.8462C65.5815 17.1399 65.5518 16.9846 65.4329 16.9634C65.3437 16.9563 65.2446 16.9634 65.2049 16.9916Z" fill="#FFF8F8"/>
<path d="M66.8798 17.0552C66.7906 17.2317 66.8105 18.5947 66.9096 18.7077C66.9591 18.7642 67.0681 18.7854 67.1573 18.7642C67.2961 18.7218 67.3159 18.6018 67.2961 17.8532C67.2664 17.1187 67.2465 16.9845 67.1078 16.9634C67.0186 16.9492 66.9195 16.9916 66.8798 17.0552Z" fill="#FFF8F8"/>
<path d="M67.7818 16.9916C67.7421 17.0198 67.7124 17.4153 67.7124 17.8743C67.7124 18.637 67.7322 18.7147 67.9106 18.7854C68.1782 18.8842 68.2278 18.7218 68.1881 17.7613C68.1683 17.1257 68.1287 16.9845 68.0097 16.9633C67.9205 16.9562 67.8214 16.9633 67.7818 16.9916Z" fill="#FFF8F8"/>
<path d="M68.6737 16.9986C68.5845 17.0551 68.5845 18.743 68.6637 18.8066C68.6935 18.8277 68.7827 18.8277 68.862 18.8066C69.0602 18.7571 69.0701 16.9492 68.8719 16.9492C68.7926 16.9492 68.7034 16.9704 68.6737 16.9986Z" fill="#FFF8F8"/>
<path d="M69.4567 17.0552C69.4269 17.1188 69.3972 17.5002 69.3972 17.9027C69.3972 18.4889 69.4269 18.6584 69.5657 18.7502C69.8333 18.9479 69.9027 18.736 69.8729 17.818C69.8432 17.1188 69.8135 16.9846 69.6846 16.9634C69.5954 16.9493 69.4963 16.9917 69.4567 17.0552Z" fill="#FFF8F8"/>
<path d="M71.2504 16.9986C71.2108 17.0198 71.181 17.4294 71.181 17.9096C71.181 18.6017 71.2108 18.7783 71.3297 18.8065C71.409 18.8348 71.5081 18.8136 71.5378 18.7712C71.627 18.6724 71.6865 17.2529 71.6171 17.0692C71.5675 16.9492 71.3693 16.9068 71.2504 16.9986Z" fill="#FFF8F8"/>
<path d="M72.0236 17.1046C71.9938 17.1964 71.974 17.599 71.9938 18.0086C72.0236 18.6936 72.0335 18.7501 72.2218 18.7501C72.4101 18.7501 72.42 18.6936 72.4497 18.0086C72.4794 17.1753 72.4299 16.9493 72.2218 16.9493C72.1425 16.9493 72.0533 17.0199 72.0236 17.1046Z" fill="#FFF8F8"/>
<path d="M72.9352 16.9988C72.8956 17.0199 72.8658 17.4154 72.8658 17.8674C72.8658 18.503 72.8956 18.7149 73.0046 18.7784C73.1235 18.849 73.1731 18.8349 73.2524 18.7219C73.3713 18.5736 73.401 17.253 73.3019 17.0623C73.2425 16.9493 73.0442 16.914 72.9352 16.9988Z" fill="#FFF8F8"/>
<path d="M73.7578 17.8603C73.7578 18.5947 73.7875 18.7784 73.9065 18.8066C73.9858 18.8349 74.075 18.8278 74.0948 18.7925C74.1741 18.7077 74.184 17.1117 74.1146 17.0269C74.075 16.9846 73.9758 16.9492 73.8966 16.9492C73.7875 16.9492 73.7578 17.1117 73.7578 17.8603Z" fill="#FFF8F8"/>
<path d="M75.512 16.9986C75.4724 17.0198 75.4426 17.4365 75.4426 17.9167C75.4426 18.7854 75.4426 18.7924 75.6706 18.7712C75.8787 18.7501 75.8886 18.7147 75.9183 18.0085C75.9382 17.5989 75.9183 17.1964 75.8886 17.1046C75.8391 16.9563 75.6408 16.8998 75.512 16.9986Z" fill="#FFF8F8"/>
<path d="M76.3248 17.1046C76.2752 18.4252 76.3941 18.9831 76.6816 18.7783C76.8005 18.6936 76.8302 17.2317 76.7113 17.0693C76.5825 16.8927 76.3347 16.921 76.3248 17.1046Z" fill="#FFF8F8"/>
<path d="M77.1968 16.9988C77.1572 17.02 77.1274 17.4225 77.1274 17.8816C77.1274 18.5737 77.1572 18.7291 77.286 18.7644C77.5734 18.842 77.6527 18.6726 77.6329 17.9028C77.623 17.4932 77.5833 17.1047 77.5536 17.0483C77.504 16.9423 77.3058 16.9141 77.1968 16.9988Z" fill="#FFF8F8"/>
<path d="M78.0888 16.9987C78.0491 17.0199 78.0194 17.4153 78.0194 17.8673C78.0194 18.7148 78.1086 18.9337 78.3861 18.7783C78.5249 18.6936 78.5744 17.2882 78.4555 17.0622C78.396 16.9492 78.1978 16.9139 78.0888 16.9987Z" fill="#FFF8F8"/>
<path d="M79.8233 17.0341C79.635 17.1682 79.6647 18.6725 79.853 18.7855C79.9422 18.8349 80.0413 18.8561 80.081 18.8279C80.1206 18.7996 80.1702 18.4253 80.1999 17.9945C80.2594 17.0411 80.1602 16.794 79.8233 17.0341Z" fill="#FFF8F8"/>
<path d="M80.6656 16.9916C80.6259 17.0199 80.5962 17.4295 80.5962 17.9097C80.5962 18.5877 80.6259 18.7784 80.7349 18.8066C81.0224 18.8914 81.1016 18.6724 81.0719 17.825C81.0422 17.1329 81.0124 16.9846 80.8935 16.9634C80.8043 16.9563 80.7052 16.9634 80.6656 16.9916Z" fill="#FFF8F8"/>
<path d="M81.5278 17.0339C81.4881 17.0834 81.4683 17.4859 81.4782 17.9308C81.508 18.75 81.6071 18.976 81.8449 18.75C81.9837 18.6159 82.0134 17.267 81.8846 17.0834C81.7656 16.928 81.6368 16.9139 81.5278 17.0339Z" fill="#FFF8F8"/>
<path d="M82.3504 16.9988C82.3107 17.0199 82.281 17.4154 82.281 17.8674C82.281 18.7078 82.3702 18.9197 82.6576 18.7926C82.7964 18.729 82.8657 17.1753 82.7369 17.027C82.6576 16.9423 82.4495 16.9211 82.3504 16.9988Z" fill="#FFF8F8"/>
<path d="M84.0947 17.034C84.0055 17.1399 83.9559 18.3052 84.0352 18.5877C84.0649 18.7218 84.1442 18.7854 84.2731 18.7854C84.3722 18.7854 84.4614 18.7642 84.4713 18.7289C84.5506 18.3052 84.5307 17.1117 84.4415 17.041C84.3127 16.928 84.1938 16.921 84.0947 17.034Z" fill="#FFF8F8"/>
<path d="M84.9767 17.034C84.8974 17.0905 84.8578 17.3871 84.8578 17.9168C84.8578 18.6301 84.8776 18.7148 85.0461 18.7854C85.3038 18.8772 85.3335 18.7925 85.3731 17.8673C85.4029 17.0058 85.3038 16.801 84.9767 17.034Z" fill="#FFF8F8"/>
<path d="M85.8191 16.9916C85.6902 17.0905 85.7398 18.6936 85.8785 18.7713C86.1759 18.9478 86.2551 18.7571 86.2254 17.8603C86.1957 17.1399 86.1659 16.9845 86.047 16.9634C85.9578 16.9563 85.8587 16.9634 85.8191 16.9916Z" fill="#FFF8F8"/>
<path d="M86.6814 17.0269C86.6516 17.0692 86.6219 17.4577 86.6318 17.8885C86.6516 18.7077 86.7408 18.9266 87.0084 18.7712C87.1174 18.7077 87.1472 18.5241 87.1174 17.9096C87.0976 17.4789 87.0481 17.0834 87.0084 17.0339C86.9093 16.928 86.7706 16.9209 86.6814 17.0269Z" fill="#FFF8F8"/>
<path d="M88.396 16.9916C88.2671 17.0905 88.3167 18.6936 88.4554 18.7713C88.7528 18.9478 88.832 18.7571 88.8023 17.8603C88.7726 17.1399 88.7429 16.9845 88.6239 16.9634C88.5347 16.9563 88.4356 16.9634 88.396 16.9916Z" fill="#FFF8F8"/>
<path d="M89.2681 17.0198C89.159 17.1469 89.1888 18.7218 89.3077 18.8065C89.3771 18.856 89.4464 18.856 89.5356 18.7995C89.6248 18.75 89.6645 18.4817 89.6645 17.8602C89.6645 17.1045 89.6447 16.9845 89.496 16.9633C89.4068 16.9492 89.3077 16.9774 89.2681 17.0198Z" fill="#FFF8F8"/>
<path d="M90.0708 17.1116C89.9717 17.4153 90.0212 18.6229 90.1402 18.7429C90.3978 18.9831 90.497 18.7571 90.5168 17.9237C90.5168 17.4718 90.497 17.0692 90.4573 17.0268C90.3483 16.8927 90.1303 16.9421 90.0708 17.1116Z" fill="#FFF8F8"/>
<path d="M90.9628 17.0551C90.9331 17.1187 90.9033 17.5142 90.9033 17.9379C90.9033 18.4958 90.943 18.7218 91.0421 18.7783C91.3196 18.9407 91.4088 18.6936 91.379 17.8249C91.3493 17.1187 91.3196 16.9845 91.1907 16.9633C91.1015 16.9492 91.0024 16.9916 90.9628 17.0551Z" fill="#FFF8F8"/>
<path d="M92.7368 17.0269C92.6476 17.1258 92.6476 18.6865 92.7368 18.7854C92.7666 18.8207 92.8557 18.8348 92.9449 18.8066C93.0639 18.7783 93.0837 18.6159 93.0639 17.8814C93.044 17.2882 92.9945 16.9845 92.9152 16.9704C92.8557 16.9563 92.7765 16.9775 92.7368 17.0269Z" fill="#FFF8F8"/>
<path d="M93.5494 16.9987C93.4503 17.0693 93.4701 18.5947 93.5692 18.7077C93.6188 18.7642 93.7278 18.7854 93.817 18.7642C94.0549 18.7007 94.0549 17.0552 93.817 16.9916C93.6287 16.9422 93.6287 16.9422 93.5494 16.9987Z" fill="#FFF8F8"/>
<path d="M94.4414 16.9916C94.3522 17.0552 94.3522 18.5877 94.4314 18.7431C94.481 18.8278 94.5306 18.8349 94.6792 18.7784C94.8576 18.7148 94.8675 18.6371 94.8477 17.8462C94.818 17.1399 94.7882 16.9846 94.6693 16.9634C94.5801 16.9563 94.481 16.9634 94.4414 16.9916Z" fill="#FFF8F8"/>
<path d="M95.3037 17.0269C95.2343 17.1117 95.2443 18.7077 95.3235 18.7925C95.3434 18.8278 95.4326 18.8349 95.5118 18.8066C95.6308 18.7784 95.6605 18.6018 95.6605 17.9026C95.6605 17.2035 95.6308 17.0269 95.5118 16.9987C95.4326 16.9704 95.3434 16.9916 95.3037 17.0269Z" fill="#FFF8F8"/>
<path d="M97.0083 17.0623C96.9191 17.2388 96.9389 18.6654 97.038 18.7784C97.1173 18.8631 97.1569 18.8631 97.2858 18.7925C97.4146 18.7148 97.4443 18.5453 97.4443 17.938C97.4443 17.1258 97.4047 16.9493 97.1966 16.9493C97.1272 16.9493 97.038 16.9987 97.0083 17.0623Z" fill="#FFF8F8"/>
<path d="M97.821 17.0764C97.7616 17.2247 97.821 18.623 97.8904 18.7642C97.9102 18.8137 97.9994 18.8348 98.0886 18.8137C98.3265 18.7501 98.267 16.9987 98.0291 16.9634C97.9399 16.9492 97.8408 16.9987 97.821 17.0764Z" fill="#FFF8F8"/>
<path d="M98.6932 17.0552C98.5743 17.2882 98.6238 18.6936 98.7626 18.7713C99.0599 18.9478 99.1392 18.7571 99.1094 17.8603C99.0797 17.1187 99.0599 16.9845 98.9211 16.9634C98.8319 16.9492 98.7328 16.9916 98.6932 17.0552Z" fill="#FFF8F8"/>
<path d="M99.5949 16.9987C99.5552 17.0199 99.5255 17.4295 99.5255 17.9097C99.5255 18.5877 99.5552 18.7784 99.6643 18.8066C99.9319 18.8843 100.021 18.6724 100.011 17.9309C100.011 17.5284 99.9814 17.1399 99.9616 17.0693C99.912 16.9493 99.7138 16.9069 99.5949 16.9987Z" fill="#FFF8F8"/>
<path d="M12.8072 26.8292C12.6783 27.0128 12.6684 38.3335 12.8072 38.5877L12.9063 38.7714L16.9895 38.7572L21.0826 38.7361V37.7827V36.8293L18.3076 36.7939L15.5326 36.7586L15.5029 35.318C15.493 34.3857 15.5128 33.849 15.5822 33.7925C15.6614 33.7219 16.2065 33.7007 17.7328 33.6936C19.2788 33.6936 19.7942 33.6725 19.8636 33.6018C19.9726 33.4747 19.9627 31.9846 19.8537 31.8575C19.7843 31.7798 19.368 31.7586 17.7526 31.7657C16.5138 31.7657 15.6813 31.7374 15.6119 31.6951C15.5128 31.6386 15.483 31.2643 15.483 30.2614C15.483 29.5058 15.5128 28.849 15.5425 28.7854C15.5921 28.6866 15.929 28.6724 18.2085 28.6724C19.6455 28.6724 20.8844 28.6512 20.9736 28.6301C21.1024 28.5948 21.1321 28.4394 21.1321 27.6837C21.1321 26.808 21.1222 26.7798 20.9141 26.7374C20.7853 26.7162 18.9419 26.695 16.8012 26.695C13.0549 26.695 12.9063 26.7021 12.8072 26.8292Z" fill="#FFF8F8"/>
<path d="M34.8387 26.7727C34.6603 26.8998 34.6504 38.5595 34.8288 38.6866C34.9081 38.7431 35.354 38.7714 36.1667 38.7714C37.2668 38.7714 37.3857 38.7572 37.4848 38.6372C37.5443 38.5454 37.5839 37.3942 37.5839 35.3886C37.5839 33.6795 37.6236 32.2671 37.6731 32.2459C37.7227 32.2247 37.8317 32.3589 37.9209 32.5425C38.02 32.7261 38.1588 32.9874 38.2281 33.1216C38.2975 33.2558 38.5453 33.7501 38.7732 34.2163C39.0012 34.6824 39.2192 35.1273 39.2688 35.205C39.3084 35.2826 39.5363 35.7276 39.7643 36.1937C40.6067 37.9451 40.8842 38.4606 41.013 38.6089C41.1518 38.7643 41.2212 38.7714 42.3212 38.7714C43.0943 38.7714 43.5303 38.7431 43.6096 38.6866C43.7781 38.5666 43.7781 26.8998 43.6096 26.7798C43.461 26.6738 41.3203 26.6668 41.0428 26.7656C40.8644 26.8363 40.8545 26.9493 40.8545 30.0142C40.8545 31.801 40.8148 33.1993 40.7653 33.2205C40.6662 33.2699 40.6463 33.2346 40.2103 32.3448C39.8337 31.5609 39.467 30.8264 38.8228 29.5552C38.5651 29.0467 38.1687 28.2416 37.9209 27.7614C37.683 27.2741 37.4452 26.8504 37.3857 26.808C37.2172 26.688 34.9873 26.6597 34.8387 26.7727Z" fill="#FFF8F8"/>
<path d="M48 26.7657C47.4351 26.8504 46.7909 27.1259 46.4737 27.4225C45.9088 27.9521 45.8989 28.0228 45.9286 32.8815L45.9584 37.3237L46.2557 37.7403C46.6026 38.2347 47.108 38.5172 47.9009 38.6655C48.5649 38.7926 51.7561 38.8067 52.5985 38.6867C53.4013 38.5737 54.0158 38.2629 54.3824 37.7827L54.6798 37.3943L54.7095 34.8378C54.7392 32.4366 54.7293 32.2813 54.5608 32.2177C54.3527 32.1471 50.7948 32.1612 50.6858 32.2318C50.6461 32.2601 50.6065 32.6555 50.5867 33.1146C50.547 34.075 50.5767 34.1174 51.3498 34.1245C51.6471 34.1245 51.8949 34.1598 51.9642 34.2234C52.0435 34.2869 52.0633 34.6612 52.0435 35.4169C51.994 36.8222 52.0336 36.7869 50.3587 36.794C49.2586 36.794 49.2091 36.7869 48.9712 36.6104L48.7334 36.4268L48.7036 32.7968C48.6739 28.955 48.6937 28.8349 49.1298 28.7148C49.219 28.6937 49.7938 28.6725 50.4083 28.6725C51.4588 28.6725 51.5381 28.6795 51.7462 28.842C51.9444 28.9903 51.9742 29.1103 52.0237 29.7459C52.0534 30.1414 52.1228 30.5157 52.1724 30.5651C52.2517 30.6287 52.5985 30.6499 53.4806 30.6358L54.6798 30.6146L54.7095 29.4846C54.7293 28.5948 54.6996 28.2841 54.5707 27.9874C54.3527 27.5002 53.8671 27.1047 53.2229 26.8999C52.7373 26.7516 52.5589 26.7374 50.5668 26.7233C49.3974 26.7092 48.2378 26.7304 48 26.7657Z" fill="#FFF8F8"/>
<path d="M57.0881 26.7727C56.9295 26.8363 56.9097 27.2176 56.9097 32.6696C56.9097 36.5891 56.9394 38.5383 57.0088 38.6301C57.1079 38.7572 57.2268 38.7714 58.3269 38.7714C59.1396 38.7714 59.5856 38.7431 59.6648 38.6866C59.8333 38.5666 59.8333 26.8998 59.6648 26.7798C59.5162 26.6738 57.3358 26.6668 57.0881 26.7727Z" fill="#FFF8F8"/>
<path d="M62.0831 26.7515C61.984 26.801 61.9641 28.051 61.984 32.7756L62.0137 38.7361H63.3516H64.6896L64.7193 35.5228C64.7292 33.5807 64.7788 32.2883 64.8382 32.2459C64.8977 32.2035 64.9869 32.2741 65.086 32.4578C65.1752 32.6061 65.2842 32.7968 65.3239 32.8744C65.3734 32.9521 65.5022 33.2064 65.6113 33.4394C66.1068 34.4705 67.0186 36.2643 67.2663 36.688C67.3357 36.801 67.5835 37.2954 67.8114 37.7827C68.0394 38.2699 68.2772 38.6866 68.3466 38.7149C68.4061 38.7431 68.9809 38.7714 69.6152 38.7714C70.6657 38.7714 70.7846 38.7572 70.8837 38.6372C70.9531 38.5454 70.9829 36.5538 70.9829 32.6696C70.9829 26.9775 70.9829 26.8363 70.7946 26.7656C70.4873 26.6526 68.3565 26.6738 68.2178 26.7939C68.1385 26.8645 68.1088 27.7685 68.1088 30.0496C68.1187 31.7869 68.0988 33.2275 68.0592 33.2487C67.97 33.3123 67.8412 33.1781 67.7322 32.9097C67.6727 32.7756 67.4646 32.3448 67.2663 31.9564C67.0582 31.5679 66.6321 30.7275 66.3149 30.0849C65.9978 29.4422 65.5122 28.4606 65.2347 27.8956C64.9473 27.3306 64.6499 26.8292 64.5607 26.7798C64.3823 26.6809 62.3011 26.6597 62.0831 26.7515Z" fill="#FFF8F8"/>
<path d="M73.292 26.7515C73.1929 26.7939 73.1632 28.0863 73.1632 32.6767C73.1632 35.8971 73.183 38.5948 73.2227 38.6584C73.2821 38.7572 73.6687 38.7714 77.3356 38.7714C81.2305 38.7714 81.3891 38.7643 81.4882 38.6372C81.6269 38.4394 81.617 36.9846 81.4684 36.8787C81.3792 36.8151 80.616 36.7939 78.6537 36.7939C76.1661 36.7939 75.9481 36.7869 75.8986 36.6668C75.8688 36.6033 75.849 35.9394 75.849 35.1908C75.849 34.2021 75.8787 33.8208 75.9679 33.7784C76.0373 33.7501 77.0284 33.7078 78.1681 33.6866L80.2493 33.6513L80.2791 32.7544C80.2989 31.9493 80.289 31.8504 80.1304 31.7869C80.0214 31.7515 79.1393 31.7304 78.0393 31.7445C76.4833 31.7586 76.1067 31.7445 75.9878 31.6668C75.8688 31.5821 75.849 31.2996 75.849 30.2049C75.8589 29.3928 75.8986 28.8137 75.958 28.7572C76.0373 28.6936 76.7112 28.6724 78.7231 28.6724C81.2503 28.6724 81.3891 28.6654 81.4882 28.5383C81.6269 28.3405 81.617 26.8857 81.4684 26.7798C81.3296 26.6809 73.5002 26.6597 73.292 26.7515Z" fill="#FFF8F8"/>
<path d="M83.8867 26.7516C83.7875 26.801 83.7677 28.051 83.7875 32.7756L83.8173 38.7361H87.9302H92.0431V37.7827V36.8293L89.3177 36.8081C87.8311 36.801 86.5824 36.7657 86.5427 36.7304C86.4733 36.6386 86.5031 33.8561 86.5824 33.7643C86.6319 33.7149 87.3058 33.6866 88.7231 33.6866C90.507 33.6866 90.7944 33.6725 90.8439 33.5736C90.9629 33.3547 90.9133 31.8646 90.7845 31.801C90.7151 31.7728 89.7538 31.7445 88.6537 31.7445C87.5536 31.7445 86.6319 31.7233 86.5923 31.7021C86.513 31.6456 86.4634 28.8278 86.5427 28.7431C86.5824 28.7007 87.7617 28.6654 89.3177 28.6583L92.0431 28.6372L92.0927 27.8038C92.1224 27.3448 92.1125 26.9069 92.0729 26.8292C92.0035 26.7021 91.8548 26.6951 88.0095 26.6951C85.8093 26.6951 83.956 26.7233 83.8867 26.7516Z" fill="#FFF8F8"/>
<path d="M94.2433 26.7938C94.1045 26.8998 94.0847 27.5142 94.0847 32.7261C94.0748 37.9309 94.0946 38.5594 94.2333 38.6583C94.4415 38.8066 96.6615 38.8207 96.8399 38.6795C96.9092 38.6159 96.9588 37.9309 96.9687 36.6456L96.9984 34.7106L97.6228 34.6894C98.2967 34.6682 98.485 34.7247 98.5643 34.9789C98.6238 35.2049 99.6148 37.9168 99.7338 38.2063C99.9815 38.7925 99.9122 38.7713 101.329 38.7713C102.271 38.7713 102.618 38.7501 102.657 38.6795C102.677 38.6301 102.598 38.2911 102.459 37.9238C101.825 36.1442 101.29 34.7035 101.25 34.6611C101.22 34.6329 101.26 34.5834 101.329 34.5411C102.003 34.1668 102.311 33.9125 102.509 33.5947C102.737 33.2346 102.737 33.1851 102.747 30.8263C102.747 27.952 102.717 27.832 101.964 27.2953C101.686 27.0975 101.28 26.8927 101.062 26.8433C100.764 26.7656 99.8626 26.7373 97.5336 26.7162C94.7685 26.6879 94.382 26.695 94.2433 26.7938ZM99.6743 28.8489L99.9221 29.0184V30.6498C99.9221 32.493 99.8725 32.6555 99.2977 32.7331C99.1292 32.7543 98.5346 32.7685 97.9895 32.7543L96.9984 32.7331L96.9687 30.791C96.9588 29.7246 96.9687 28.8136 96.9984 28.7642C97.0282 28.6936 97.3651 28.6724 98.2373 28.6724C99.377 28.6724 99.4464 28.6794 99.6743 28.8489Z" fill="#FFF8F8"/>
<path d="M105.095 26.7516C104.996 26.8011 104.976 28.0511 104.996 32.7757L105.026 38.7362L106.255 38.7574C107.068 38.7715 107.524 38.7503 107.613 38.6938C107.732 38.6232 107.751 37.6698 107.751 32.7404C107.751 28.2629 107.722 26.8434 107.633 26.7799C107.494 26.681 105.304 26.6598 105.095 26.7516Z" fill="#FFF8F8"/>
<path d="M110.13 26.7656C110.001 26.8221 109.981 27.5566 109.981 32.6767C109.981 35.89 110.021 38.5806 110.061 38.6442C110.13 38.7572 110.289 38.7713 111.369 38.7713C112.489 38.7713 112.608 38.7572 112.707 38.6371C112.766 38.5453 112.806 37.3871 112.806 35.3532C112.806 33.5877 112.846 32.2035 112.895 32.2035C112.994 32.2035 113.004 32.2247 113.648 33.51C113.906 34.0114 114.243 34.6823 114.402 34.9931C115.571 37.3165 115.918 38.0015 116.047 38.277C116.126 38.4535 116.245 38.6371 116.295 38.6795C116.433 38.8066 118.663 38.8066 118.832 38.6866C118.921 38.623 118.951 37.2035 118.951 32.7261C118.951 27.7967 118.931 26.8433 118.812 26.7727C118.723 26.7162 118.267 26.695 117.454 26.7091L116.225 26.7303L116.195 29.993C116.186 31.7939 116.136 33.2628 116.086 33.2628C115.918 33.2628 115.789 33.0651 115.303 32.0622C115.036 31.4973 114.471 30.3532 114.045 29.5199C113.629 28.6865 113.163 27.7543 113.014 27.4577C112.618 26.6738 112.667 26.695 111.379 26.695C110.774 26.695 110.209 26.7303 110.13 26.7656Z" fill="#FFF8F8"/>
<path d="M123.311 26.7586C122.717 26.8221 121.963 27.147 121.666 27.4648C121.141 28.0368 121.131 28.0792 121.131 32.6979C121.131 37.1965 121.151 37.3872 121.587 37.9168C121.844 38.2346 122.667 38.6019 123.311 38.7007C123.995 38.8067 127.662 38.7572 128.187 38.6372C128.713 38.5171 129.367 38.1428 129.624 37.818C129.743 37.6626 129.892 37.3307 129.951 37.0764C130.1 36.4408 130.041 32.3801 129.882 32.2671C129.803 32.2106 129.178 32.1823 127.87 32.1753C126.304 32.1753 125.957 32.1894 125.888 32.2742C125.838 32.3306 125.789 32.7332 125.789 33.164C125.789 34.075 125.838 34.1315 126.552 34.1244C126.81 34.1174 127.077 34.1527 127.147 34.1951C127.345 34.3081 127.325 36.236 127.127 36.5044C126.939 36.7728 126.829 36.794 125.63 36.794C124.54 36.794 124.282 36.7445 124.094 36.5044C124.025 36.4055 123.995 35.2332 123.995 32.712C123.995 28.3334 123.866 28.7219 125.353 28.6866C126.572 28.6583 126.939 28.7077 127.097 28.9055C127.166 28.9902 127.246 29.4069 127.275 29.8377L127.325 30.6145L128.564 30.6357C129.644 30.6498 129.813 30.6357 129.922 30.5298C130.11 30.3532 130.09 28.8702 129.892 28.277C129.644 27.493 129.317 27.1823 128.415 26.8998C127.959 26.7515 127.751 26.7374 125.838 26.7233C124.699 26.7162 123.559 26.7303 123.311 26.7586Z" fill="#FFF8F8"/>
<path d="M13.4019 46.6529V49.9438L15.6615 49.9156C18.268 49.8803 18.6644 49.8167 19.4474 49.3153C20.0222 48.9481 20.26 48.5597 20.26 47.9876C20.27 47.2249 19.6456 46.6599 18.5851 46.4763L18.1193 46.3916L18.6545 46.2009C19.9231 45.7489 20.3195 44.7037 19.4771 43.9975C18.8825 43.489 18.0896 43.3619 15.4335 43.3619H13.4019V46.6529ZM17.1084 44.5201C17.5346 44.6472 17.7626 44.8803 17.7626 45.1981C17.7626 45.6995 17.2472 45.9678 16.2561 45.982C15.9093 45.989 15.5723 45.989 15.5128 45.982C15.4137 45.9749 15.384 45.7701 15.384 45.1981V44.4212H16.0777C16.4643 44.4212 16.9301 44.4636 17.1084 44.5201ZM17.7824 47.3732C18.0599 47.571 18.1094 47.6486 18.1094 47.9523C18.1094 48.5879 17.4256 48.8986 16.0976 48.8563L15.4335 48.8351L15.4038 47.9664L15.3741 47.0907L16.4246 47.119C17.4454 47.1402 17.4652 47.1472 17.7824 47.3732Z" fill="#FFF8F8"/>
<path d="M21.8458 45.7418C21.8755 48.0653 21.8854 48.1429 22.1134 48.5455C22.4107 49.0822 23.0648 49.5836 23.7387 49.7955C24.5117 50.0356 26.1173 50.0709 27.0489 49.8661C27.8516 49.6966 28.5553 49.3011 28.8824 48.8421C29.3382 48.2136 29.3779 47.9523 29.4274 45.6005L29.477 43.3618H28.4364H27.3858L27.3561 45.6359C27.3264 47.5991 27.3066 47.9452 27.1579 48.1288C26.92 48.4466 26.5831 48.6373 26.1074 48.7291C25.255 48.8845 24.4523 48.6444 24.0856 48.1076C23.8676 47.7828 23.8576 47.7121 23.8279 45.5652L23.7883 43.3618H22.8071H21.816L21.8458 45.7418Z" fill="#FFF8F8"/>
<path d="M31.4393 46.6458V49.9297H32.4304H33.4215L33.4413 48.6726L33.471 47.4226L33.8179 47.4014C34.5315 47.352 34.8585 47.6062 36.2857 49.3082L36.801 49.9297H37.9407C38.5651 49.9297 39.0706 49.9085 39.0706 49.8803C39.0706 49.7884 37.1479 47.698 36.8506 47.465C36.6821 47.3379 36.4145 47.1754 36.2658 47.1048L35.9883 46.9848L36.5334 46.7941C38.2579 46.1938 38.5948 44.4918 37.138 43.7715C36.4541 43.4395 35.7901 43.3619 33.5008 43.3619H31.4393V46.6458ZM35.2054 44.5342C35.8793 44.7249 36.1172 45.3322 35.7009 45.8124C35.4234 46.1373 34.9874 46.2715 34.1747 46.2856L33.471 46.2927L33.4413 45.4523C33.4314 44.9862 33.4413 44.5624 33.4611 44.513C33.5404 44.3788 34.7099 44.3929 35.2054 44.5342Z" fill="#FFF8F8"/>
<path d="M40.0614 46.6458V49.9297H42.7868H45.5123V49.3294V48.7291H43.7779H42.0336L42.0634 47.9664L42.0931 47.2107L43.6094 47.1896L45.1158 47.1684V46.6105V46.0525L43.6094 46.0314L42.0931 46.0102V45.2686V44.5271L43.7085 44.5059L45.3141 44.4918V43.9268V43.3619H42.6877H40.0614V46.6458Z" fill="#FFF8F8"/>
<path d="M49.4371 43.4184C49.4172 43.4466 48.6739 44.8732 47.8018 46.5751C46.9396 48.2842 46.1864 49.739 46.1566 49.8096C46.0872 49.9226 46.1665 49.9297 47.2071 49.9156L48.3271 49.8944L48.6343 49.1882L48.9415 48.4819L50.6263 48.4608L52.3111 48.4466L52.6283 49.1882L52.9454 49.9297H54.0356C54.6402 49.9297 55.1258 49.9085 55.1258 49.8732C55.1258 49.8449 54.4023 48.3689 53.5203 46.5963L51.9048 43.3619H50.6957C50.0317 43.3619 49.4668 43.3901 49.4371 43.4184ZM51.4093 46.3986C51.5976 46.8082 51.7561 47.1825 51.7561 47.2319C51.7561 47.2955 51.4489 47.3167 50.5768 47.3167H49.3974L49.9326 46.1514C50.22 45.5088 50.4876 44.8661 50.5272 44.7249C50.5966 44.4777 50.6065 44.4918 50.8345 45.0638C50.9633 45.3887 51.221 45.989 51.4093 46.3986Z" fill="#FFF8F8"/>
<path d="M56.3349 45.7418C56.3646 48.0653 56.3746 48.1429 56.6025 48.5455C56.8998 49.0822 57.5539 49.5836 58.2278 49.7955C59.0009 50.0356 60.6064 50.0709 61.538 49.8661C62.3408 49.6966 63.0444 49.3011 63.3715 48.8421C63.8274 48.2136 63.867 47.9523 63.9166 45.6005L63.9661 43.3618H62.9255H61.875L61.8452 45.6359C61.8155 47.5991 61.7957 47.9452 61.647 48.1288C61.4092 48.4466 61.0722 48.6373 60.5965 48.7291C59.7442 48.8845 58.9414 48.6444 58.5747 48.1076C58.3567 47.7828 58.3468 47.7121 58.317 45.5652L58.2774 43.3618H57.2962H56.3052L56.3349 45.7418Z" fill="#FFF8F8"/>
<path d="M69.5955 46.6458V49.9297H70.5865H71.5776L71.5974 48.6373L71.6271 47.352L73.1435 47.3308L74.6499 47.3096V46.7517V46.1938L73.1435 46.1726L71.6271 46.1514V45.3393V44.5271L73.2426 44.5059L74.8481 44.4918V43.9268V43.3619H72.2218H69.5955V46.6458Z" fill="#FFF8F8"/>
<path d="M76.4337 46.6458V49.9297H77.4248H78.4159L78.4357 48.6726L78.4654 47.4226L78.8123 47.4014C79.5258 47.352 79.8529 47.6062 81.28 49.3153L81.8053 49.9297L84.0451 49.9156L86.2849 49.8944L86.5922 49.1882L86.8994 48.4819L88.5842 48.4608L90.269 48.4466L90.5862 49.1882L90.9033 49.9297H91.9935C92.598 49.9297 93.0837 49.9085 93.0837 49.8732C93.0837 49.8449 92.3602 48.3689 91.4781 46.5893L89.8627 43.3548L88.6238 43.376L87.385 43.3972L85.7597 46.5893C84.8677 48.3478 84.1046 49.7884 84.0748 49.7884C84.0451 49.7884 83.5793 49.3012 83.0441 48.7079C82.1423 47.698 81.5972 47.2178 81.1611 47.0554C81.0025 46.9989 81.0521 46.9565 81.5278 46.7941C83.2523 46.1938 83.5991 44.4989 82.1324 43.7715C81.4485 43.4395 80.7845 43.3619 78.4951 43.3619H76.4337V46.6458ZM80.1998 44.5342C80.8737 44.7249 81.1116 45.3322 80.6953 45.8124C80.4178 46.1373 79.9817 46.2715 79.1691 46.2856L78.4654 46.2927L78.4357 45.4523C78.4258 44.9862 78.4357 44.5624 78.4555 44.513C78.5348 44.3788 79.7042 44.3929 80.1998 44.5342ZM89.3671 46.3986C89.5555 46.8082 89.714 47.1825 89.714 47.2319C89.714 47.2955 89.4068 47.3167 88.5347 47.3167H87.3553L87.8905 46.1514C88.1779 45.5088 88.4455 44.8661 88.4851 44.7249C88.5545 44.4777 88.5644 44.4918 88.7923 45.0638C88.9212 45.3887 89.1788 45.989 89.3671 46.3986Z" fill="#FFF8F8"/>
<path d="M94.4711 46.6458V49.9297H95.4126H96.3541V47.578C96.364 45.7136 96.3838 45.2545 96.4829 45.3534C96.5523 45.4169 97.5136 46.4763 98.6336 47.698L100.665 49.9226L101.686 49.9297H102.697V46.6458V43.3619H101.755H100.804L100.834 45.6147C100.854 46.8576 100.844 47.8605 100.814 47.8463C100.784 47.8322 99.8526 46.8223 98.7327 45.5935L96.701 43.3619H95.591H94.4711V46.6458Z" fill="#FFF8F8"/>
<path d="M104.877 46.6458V49.9297H105.869H106.86V48.3407C106.86 47.465 106.889 46.7517 106.939 46.7588C106.979 46.7588 107.662 47.472 108.465 48.3478L109.932 49.9297H111.23C112.261 49.9297 112.509 49.9085 112.429 49.8379C112.271 49.6966 109.189 46.6528 109.099 46.554C109.05 46.4975 109.585 45.9184 110.616 44.9155L112.211 43.3619H110.982H109.763L108.386 44.8732C107.623 45.7065 106.979 46.3915 106.939 46.3915C106.889 46.3986 106.86 45.7136 106.86 44.8802V43.3619H105.869H104.877V46.6458Z" fill="#FFF8F8"/>
<path d="M113.5 46.6458V49.9297H116.225H118.951V49.3294V48.7291H117.216H115.472L115.502 47.9664L115.531 47.2107L117.048 47.1896L118.554 47.1684V46.6105V46.0525L117.048 46.0314L115.531 46.0102V45.2686V44.5271L117.147 44.5059L118.752 44.4918V43.9268V43.3619H116.126H113.5V46.6458Z" fill="#FFF8F8"/>
</g>
<defs>
<clipPath id="clip0_1_2">
<rect width="131" height="50" fill="white"/>
</clipPath>
</defs>
</svg>
